<?xml version="1.0" encoding="UTF-8"?>
<svg xmlns="http://www.w3.org/2000/svg" xmlns:xlink="http://www.w3.org/1999/xlink" width="48px" height="48px" viewBox="0 0 48 48" version="1.1">
<g id="surface1">
<path style=" stroke:none;fill-rule:nonzero;fill:rgb(0%,0%,0%);fill-opacity:1;" d="M 21.703125 0.101562 C 14.203125 0.882812 7.632812 4.960938 3.636719 11.316406 C -0.929688 18.570312 -1.199219 27.976562 2.933594 35.484375 C 4.808594 38.898438 7.5 41.820312 10.820312 44.042969 C 13.050781 45.535156 16.445312 46.960938 19.03125 47.476562 C 21.039062 47.878906 21.796875 47.953125 24 47.953125 C 26.210938 47.953125 27.121094 47.859375 28.988281 47.476562 C 37.238281 45.75 44.128906 39.582031 46.78125 31.519531 C 47.644531 28.914062 47.953125 26.914062 47.953125 24 C 47.953125 21.179688 47.652344 19.191406 46.867188 16.734375 C 45.703125 13.078125 43.773438 9.910156 41.035156 7.132812 C 37.292969 3.347656 32.664062 1.011719 27.328125 0.226562 C 26.175781 0.0546875 22.847656 -0.0195312 21.703125 0.101562 Z M 20.8125 17.597656 C 24.882812 26.476562 25.460938 27.824219 25.929688 29.511719 C 26.476562 31.5 26.550781 32.230469 26.597656 35.878906 L 26.644531 39.1875 L 21.65625 39.1875 L 21.65625 37.039062 C 21.65625 32.632812 21.273438 30.523438 19.941406 27.515625 C 19.445312 26.398438 11.945312 10.191406 11.757812 9.816406 L 11.617188 9.5625 L 17.117188 9.5625 Z M 33.382812 16.285156 C 31.742188 19.988281 30.320312 23.210938 30.207031 23.457031 L 30.007812 23.90625 L 24.851562 23.90625 L 25.105469 23.316406 C 25.246094 22.988281 26.644531 19.761719 28.21875 16.144531 L 31.078125 9.5625 L 36.355469 9.5625 Z M 33.382812 16.285156 "/>
</g>
</svg>
